<?xml version="1.0" encoding="UTF-8"?>
<svg id="Layer_2" data-name="Layer 2" xmlns="http://www.w3.org/2000/svg" width="275.5" height="143.6" viewBox="0 0 275.5 143.6">
  <defs>
    <style>
      .cls-1 {
        fill: none;
      }

      .cls-2 {
        fill: #fff;
      }

      .cls-3 {
        fill: #c1272c;
      }

      .cls-4 {
        fill: #231f20;
      }
    </style>
  </defs>
  <g id="Layer_1-2" data-name="Layer 1">
    <g>
      <rect class="cls-1" width="275.5" height="143.6"/>
      <g>
        <path class="cls-2" d="M263.4,59.6c0-6-1.6-10.6-4.6-13.6-3-3-7.1-4.5-12.4-4.5-3.8,0-7,.7-9.7,2-1.6,.8-3.1,1.9-4.6,3.2v-4.3s-19.5,0-19.5,0v9.8c-.6-1-1.3-1.9-2.2-2.8-4.9-5.2-12.1-7.9-21.5-7.9-8.2,0-14.9,2.3-19.7,6.8-2.2,2-3.9,4.3-5.1,6.8-.9-2.3-2-4.4-3.4-6.4-3.6-4.8-8.7-7.2-15.3-7.2-3.3,0-6.3,.7-9,2.1-1.1,.6-2.3,1.4-3.5,2.5v-3.6s-19.5,0-19.5,0h0s-19.1,0-19.1,0v-1.5s19.7,0,19.7,0v-14.6s-20.7,0-20.7,0h0s-19.7,.2-19.7,.2h-25.2c0,0-13.5,15.2-13.5,15.2l-.2-34.5H12.5c0,0,.3,81.4,.3,81.4h22.2c0,0,0-20.8,0-20.8l4.7-4.1,13.1,24.8h21.1c0,0,0,0,0,0h20.6c0,0,19.1-.1,19.1-.1v16.1c0,0,20.8,0,20.8,0v-18.3c1,.7,2.1,1.3,3.3,1.7,2.3,.9,4.9,1.4,7.8,1.4h0c5.9,0,10.8-2.1,14.7-6.2,1.8-1.9,3.2-4.3,4.2-7,1.5,2.8,3.6,5.3,6.3,7.5,4.7,3.7,10.8,5.5,18.3,5.5h.2c8.4,0,15.2-2.3,20-6.8,1.4-1.3,2.6-2.7,3.6-4.2v10s20.6,0,20.6,0v-22.1c0-4.2,.7-6.1,1.4-6.9,1-1.1,2.1-1.6,3.7-1.6,1.4,0,2.4,.4,3,1.1,.5,.5,1.1,1.7,1.1,4.4v25.1c0,0,20.8,0,20.8,0v-28.7ZM55.4,49.7l18.1-17,.2,46.6-18.3-29.6Zm88.4,22.6c-1,1.2-2.2,1.7-3.7,1.7-1.7,0-3.1-.6-4.3-1.8-1.2-1.3-1.8-3.4-1.8-6.3,0-3.2,.6-5.4,1.7-6.7,1.1-1.2,2.5-1.9,4.1-1.9h0c1.5,0,2.7,.6,3.8,1.8,1.1,1.3,1.7,3.4,1.7,6.4,0,3.2-.5,5.6-1.6,6.8Zm50.1,.6c-1.2,1.4-2.8,2.1-4.8,2.1-1.9,0-3.4-.7-4.7-2.1-1.3-1.5-2-3.9-2-7.2,0-3.3,.6-5.7,2-7.1,1.3-1.4,2.9-2.2,4.8-2.2h0c1.8,0,3.3,.7,4.6,2.1,1.3,1.5,2,3.8,2,7,0,3.5-.6,6-1.9,7.4Z"/>
        <polygon class="cls-3" points="14.4 9.3 33.1 9.3 33.1 46.7 49.2 28.6 75.1 28.7 53.2 49.2 76.5 87.1 53.7 87.1 40.1 61.2 33.1 67.4 33.1 87.1 14.4 87.1 14.4 9.3"/>
        <rect class="cls-3" x="75.4" y="28.5" width="17.1" height="58.5"/>
        <path class="cls-3" d="M95.2,44.7h17.1s0,42.4,0,42.4h-17.1s0-42.4,0-42.4Zm0-16.1h17.1s0,11,0,11h-17.1s0-11,0-11Z"/>
        <g>
          <path class="cls-3" d="M132.3,65.9c0,3.4,.7,5.8,2.2,7.5,1.5,1.6,3.4,2.4,5.6,2.4,2,0,3.6-.8,5-2.3,1.3-1.6,2-4.2,2-7.9,0-3.4-.7-6-2.1-7.6-1.4-1.6-3.1-2.4-5.1-2.4-2.2,0-4,.8-5.4,2.4-1.5,1.6-2.2,4.3-2.2,7.9m-17.1,37.2V44.6s15.9,0,15.9,0v6.3c2.2-2.6,4.2-4.4,6.1-5.4,2.5-1.3,5.2-1.9,8.3-1.9,6,0,10.6,2.2,13.8,6.5,3.3,4.3,4.9,9.7,4.9,16.1,0,7.1-1.8,12.4-5.3,16.1-3.5,3.7-8,5.6-13.4,5.6-2.6,0-5-.4-7.2-1.3-2.2-.8-4.1-2.1-5.8-3.8v20.2s-17.2,0-17.2,0Z"/>
          <path class="cls-3" d="M180.7,65.9c0,3.8,.8,6.6,2.4,8.4,1.6,1.8,3.6,2.7,6.1,2.7,2.5,0,4.5-.9,6.1-2.7,1.6-1.8,2.4-4.6,2.4-8.6,0-3.7-.8-6.4-2.4-8.2-1.6-1.8-3.6-2.7-5.9-2.7-2.5,0-4.5,.9-6.2,2.7-1.6,1.8-2.4,4.6-2.4,8.3m-17.1,0c0-6.5,2.3-11.8,6.9-16,4.6-4.2,10.8-6.3,18.6-6.3,8.9,0,15.6,2.5,20.2,7.4,3.7,4,5.5,8.8,5.5,14.6,0,6.5-2.3,11.9-6.8,16-4.5,4.2-10.8,6.3-18.8,6.3-7.2,0-12.9-1.7-17.4-5.2-5.4-4.3-8.1-9.9-8.1-16.8"/>
          <path class="cls-3" d="M214.5,44.6h15.9s0,6.9,0,6.9c2.4-2.8,4.8-4.8,7.2-6.1,2.4-1.2,5.4-1.8,8.9-1.8,4.7,0,8.4,1.3,11.1,4,2.7,2.7,4,6.8,4,12.4v26.9s-17.1,0-17.1,0v-23.3c0-2.7-.5-4.5-1.6-5.6-1-1.1-2.5-1.7-4.4-1.7-2.1,0-3.7,.7-5,2.2-1.3,1.5-1.9,4.2-1.9,8v20.4s-17,0-17,0V44.6Z"/>
          <path class="cls-3" d="M267.1,42.5h.5c.6,0,1.1-.2,1.1-.7,0-.4-.3-.7-1-.7-.3,0-.5,0-.6,0v1.4Zm0,2.7h-1.1s0-4.8,0-4.8c.4,0,1.1-.1,1.8-.1,.9,0,1.3,.1,1.7,.4,.3,.2,.5,.6,.5,1.1,0,.5-.4,.9-1,1.1h0c.5,.2,.7,.6,.9,1.2,.1,.7,.2,1,.3,1.2h-1.2c-.1-.2-.2-.6-.4-1.2,0-.5-.4-.8-1-.8h-.5s0,1.9,0,1.9Zm-2.9-2.5c0,2.1,1.6,3.8,3.7,3.8,2.1,0,3.7-1.7,3.7-3.8,0-2.1-1.5-3.9-3.7-3.9-2.1,0-3.7,1.7-3.7,3.8m8.6,0c0,2.7-2.1,4.8-4.9,4.8-2.7,0-4.9-2.1-4.9-4.9,0-2.7,2.2-4.8,4.9-4.8,2.8,0,4.9,2.1,4.9,4.8"/>
        </g>
        <g>
          <path class="cls-4" d="M21.1,124.4v-5.8h3.1v14.6h-3.1v-6.5h-3.5v6.5h-3.1v-14.6h3.1v5.8h3.5Z"/>
          <path class="cls-4" d="M26,127.9c0-2.8,.4-5.2,4.2-5.2s4.2,2.4,4.2,5.2-.5,5.4-4.2,5.4-4.2-2.2-4.2-5.4Zm5.5-.2c0-2.1-.1-3.2-1.3-3.2s-1.3,1.1-1.3,3.2c0,3.1,.3,3.8,1.3,3.8s1.3-.7,1.3-3.8Z"/>
          <path class="cls-4" d="M38.7,123v1.3h0c.5-1.2,1.5-1.5,2.6-1.5v2.5c-2.5-.2-2.5,1.3-2.5,2.3v5.6h-2.9v-10.2h2.7Z"/>
          <path class="cls-4" d="M41.2,123h1.2v-1.6l2.9-1.3v2.9h1.5v1.8h-1.5v5.5c0,.8,0,1.3,.9,1.3s.4,0,.5,0v1.8c-.4,0-.8,.1-1.5,.1-2.5,0-2.8-1.6-2.8-2.3v-6.3h-1.2v-1.8Z"/>
          <path class="cls-4" d="M50.7,118.6v2.2h-2.9v-2.2h2.9Zm0,14.6h-2.9v-10.2h2.9v10.2Z"/>
          <path class="cls-4" d="M58,126.6c0-1.5-.4-2-1.3-2s-1.3,1.1-1.3,3.2c0,3.1,.3,3.8,1.3,3.8s1.3-.8,1.3-2.1h2.9c0,2.8-1.5,4-4.2,4s-4.2-2.2-4.2-5.4,.4-5.2,4.2-5.2,4.1,1.2,4.1,3.8h-2.9Z"/>
          <path class="cls-4" d="M67.5,132.1h0c-.6,.9-1.3,1.2-2.4,1.2s-2.5-.8-2.5-2.2v-8.2h2.9v7.1c0,.9,.2,1.6,1.1,1.6s1.1-.7,1.1-1.6v-7.1h2.9v8.2c0,.7,0,1.4,.1,2h-3v-1Z"/>
          <path class="cls-4" d="M75.3,118.6v14.6h-2.9v-14.6h2.9Z"/>
          <path class="cls-4" d="M76.3,123h1.2v-1.6l2.9-1.3v2.9h1.5v1.8h-1.5v5.5c0,.8,0,1.3,.9,1.3s.4,0,.5,0v1.8c-.4,0-.8,.1-1.5,.1-2.5,0-2.8-1.6-2.8-2.3v-6.3h-1.2v-1.8Z"/>
          <path class="cls-4" d="M87.7,132.1h0c-.6,.9-1.3,1.2-2.4,1.2s-2.5-.8-2.5-2.2v-8.2h2.9v7.1c0,.9,.2,1.6,1.1,1.6s1.1-.7,1.1-1.6v-7.1h2.9v8.2c0,.7,0,1.4,.1,2h-3v-1Z"/>
          <path class="cls-4" d="M95.1,123v1.3h0c.5-1.2,1.5-1.5,2.6-1.5v2.5c-2.5-.2-2.5,1.3-2.5,2.3v5.6h-2.9v-10.2h2.7Z"/>
          <path class="cls-4" d="M106.5,131.3c0,.6,0,1.3,.1,1.9h-2.7v-1.4h-.2c-.6,1.1-1.4,1.6-2.7,1.6-2,0-2.7-1.5-2.7-3.3,0-3.4,2.6-3.5,5.3-3.5v-.8c0-.9-.1-1.5-1.2-1.5s-1.1,.7-1.1,1.6h-2.8c0-1.2,.4-2,1.1-2.5,.6-.5,1.6-.7,2.7-.7,3.6,0,4.1,1.6,4.1,3.4v5.1Zm-5.3-1.3c0,.7,.1,1.6,1.1,1.6,1.7,0,1.4-2.3,1.4-3.4-1.4,0-2.5,0-2.5,1.8Z"/>
          <path class="cls-4" d="M111.6,118.6v14.6h-2.9v-14.6h2.9Z"/>
          <path class="cls-4" d="M117.9,133.2v-14.6h7.6v2.2h-4.5v3.7h4.3v2.2h-4.3v6.4h-3.1Z"/>
          <path class="cls-4" d="M134.2,131.3c0,.6,0,1.3,.1,1.9h-2.7v-1.4h-.2c-.6,1.1-1.4,1.6-2.7,1.6-2,0-2.7-1.5-2.7-3.3,0-3.4,2.6-3.5,5.3-3.5v-.8c0-.9-.1-1.5-1.2-1.5s-1.1,.7-1.1,1.6h-2.8c0-1.2,.4-2,1.1-2.5,.6-.5,1.6-.7,2.7-.7,3.6,0,4.1,1.6,4.1,3.4v5.1Zm-5.3-1.3c0,.7,.1,1.6,1.1,1.6,1.7,0,1.4-2.3,1.4-3.4-1.4,0-2.5,0-2.5,1.8Z"/>
          <path class="cls-4" d="M138.4,129.9c0,.5,0,.9,.1,1.2,.2,.3,.5,.5,1,.5s1.1-.4,1.1-1.1c0-2.2-5-1.7-5-4.9s2.2-2.9,4-2.9,3.7,.9,3.5,3.1h-2.8c0-.7,0-1.1-.3-1.3-.2-.2-.4-.2-.7-.2-.6,0-1,.4-1,1.1,0,1.6,5,1.5,5,4.8s-1.5,3.1-3.8,3.1-4.1-.6-4-3.5h2.8Z"/>
          <path class="cls-4" d="M143.6,123h1.2v-1.6l2.9-1.3v2.9h1.5v1.8h-1.5v5.5c0,.8,0,1.3,.9,1.3s.4,0,.5,0v1.8c-.4,0-.8,.1-1.5,.1-2.5,0-2.8-1.6-2.8-2.3v-6.3h-1.2v-1.8Z"/>
          <path class="cls-4" d="M152.6,128.5c0,1.2,0,3,1.3,3s1.2-1,1.2-1.8h2.9c0,1.1-.4,2-1.1,2.6-.7,.6-1.7,1-3,1-3.7,0-4.2-2.2-4.2-5.4s.4-5.2,4.2-5.2,4.3,2.5,4.2,5.8h-5.5Zm2.6-1.6c0-1,0-2.4-1.3-2.4s-1.3,1.5-1.3,2.4h2.6Z"/>
          <path class="cls-4" d="M162.5,124h0c.3-.5,.6-.8,1-1,.4-.2,.9-.3,1.4-.3,1.4,0,2.5,.8,2.5,2.2v8.2h-2.9v-7c0-.9-.2-1.6-1.1-1.6s-1.1,.7-1.1,1.6v7h-2.9v-10.2h2.9v1Z"/>
          <path class="cls-4" d="M172.5,118.6v2.2h-2.9v-2.2h2.9Zm0,14.6h-2.9v-10.2h2.9v10.2Z"/>
          <path class="cls-4" d="M177.4,124h0c.3-.5,.6-.8,1-1,.4-.2,.9-.3,1.4-.3,1.4,0,2.5,.8,2.5,2.2v8.2h-2.9v-7c0-.9-.2-1.6-1.1-1.6s-1.1,.7-1.1,1.6v7h-2.9v-10.2h2.9v1Z"/>
          <path class="cls-4" d="M192.1,123v10.6c0,.7,0,3.5-3.9,3.5s-3.9-.5-4-3h2.8c0,.4,0,.8,.2,1,.2,.3,.5,.4,.9,.4,.7,0,1.1-.7,1.1-1.7v-2h0c-.4,.8-1.2,1.2-2.2,1.2-3.1,0-3-2.9-3-5.2s0-5.1,3-5.1,1.9,.4,2.3,1.4h0v-1.2h2.7Zm-4,8.3c1,0,1.2-1.1,1.2-3.2s-.1-3.5-1.2-3.5-1.3,.7-1.3,3.9-.1,2.9,1.2,2.9Z"/>
          <path class="cls-4" d="M202.2,133.4c-3.8,0-4.5-2.2-4.3-4.8h3.1c0,1.4,0,2.6,1.7,2.6s1.5-.7,1.5-1.7c0-2.6-6.1-2.8-6.1-7.1s1.1-4.1,4.8-4.1,4.4,1.3,4.2,4.4h-3c0-1.1-.2-2.2-1.4-2.2s-1.6,.5-1.6,1.6c0,2.8,6.1,2.5,6.1,7.1s-2.8,4.2-5.1,4.2Z"/>
          <path class="cls-4" d="M210.8,133.2l-2.8-10.3h2.8l1.5,7.2h0l1.5-7.2h2.8l-3.9,14.1h-3l1.1-3.8Z"/>
          <path class="cls-4" d="M219.8,129.9c0,.5,0,.9,.1,1.2,.2,.3,.5,.5,1,.5s1.1-.4,1.1-1.1c0-2.2-5-1.7-5-4.9s2.2-2.9,4-2.9,3.7,.9,3.5,3.1h-2.8c0-.7,0-1.1-.3-1.3-.2-.2-.4-.2-.7-.2-.6,0-1,.4-1,1.1,0,1.6,5,1.5,5,4.8s-1.5,3.1-3.8,3.1-4.1-.6-4-3.5h2.8Z"/>
          <path class="cls-4" d="M225,123h1.2v-1.6l2.9-1.3v2.9h1.5v1.8h-1.5v5.5c0,.8,0,1.3,.9,1.3s.4,0,.5,0v1.8c-.4,0-.8,.1-1.5,.1-2.5,0-2.8-1.6-2.8-2.3v-6.3h-1.2v-1.8Z"/>
          <path class="cls-4" d="M234,128.5c0,1.2,0,3,1.3,3s1.2-1,1.2-1.8h2.9c0,1.1-.4,2-1.1,2.6-.7,.6-1.7,1-3,1-3.7,0-4.2-2.2-4.2-5.4s.4-5.2,4.2-5.2,4.3,2.5,4.2,5.8h-5.5Zm2.6-1.6c0-1,0-2.4-1.3-2.4s-1.3,1.5-1.3,2.4h2.6Z"/>
          <path class="cls-4" d="M243.7,124h0c.6-.9,1.3-1.2,2.4-1.2s1.8,.5,2.3,1.3c.7-.9,1.5-1.3,2.6-1.3s2.5,.8,2.5,2.2v8.2h-2.9v-7c0-.9-.2-1.6-1.1-1.6s-1.1,.7-1.1,1.6v7h-2.8v-7c0-.9-.2-1.6-1.1-1.6s-1.1,.7-1.1,1.6v7h-2.9v-10.2h2.9v1Z"/>
          <path class="cls-4" d="M257.6,129.9c0,.5,0,.9,.1,1.2,.2,.3,.5,.5,1,.5s1.1-.4,1.1-1.1c0-2.2-5-1.7-5-4.9s2.2-2.9,4-2.9,3.7,.9,3.5,3.1h-2.8c0-.7,0-1.1-.3-1.3-.2-.2-.4-.2-.7-.2-.6,0-1,.4-1,1.1,0,1.6,5,1.5,5,4.8s-1.5,3.1-3.8,3.1-4.1-.6-4-3.5h2.8Z"/>
        </g>
      </g>
    </g>
  </g>
</svg>